# xmcd
#
# Track frame offsets:
#	183
#	12490
#	23955
#	35655
#	48198
#	61713
#	75970
#	98270
#	110975
#	124933
#	139633
#	156190
#	172870
#	201168
#	212470
#
# Disc length: 3060 seconds
#
# Revision: 0
# Processed by: cddbd v1.5.2PL0 Copyright (c) Steve Scherf et al.
# Submitted via: audiograbber 1.83.01
#
DISCID=ba0bf20f
DTITLE=Ray Charles - The Classic Years - Disc 3
DYEAR=1991
DGENRE=Blues
TTITLE0=Please Say You're Fooling
TTITLE1=I Don't Need No Doctor
TTITLE2=In The Heat Of The Night
TTITLE3=Yesterday
TTITLE4=Eleanor Rigby
TTITLE5=Understanding
TTITLE6=If It Wasn't For Bad Luck
TTITLE7=If You Were Mine
TTITLE8=Don't Change On Me
TTITLE9=Feel So Bad
TTITLE10=What Am I Living For
TTITLE11=Look What They've Done To My Song Ma
TTITLE12=I Gotta Woman (Part 1)
TTITLE13=I Chose To Sing The Blues
TTITLE14=I'm Gonna Move To The Outskirts Of Town
EXTD=
EXTT0=
EXTT1=
EXTT2=
EXTT3=
EXTT4=
EXTT5=
EXTT6=
EXTT7=
EXTT8=
EXTT9=
EXTT10=
EXTT11=
EXTT12=
EXTT13=
EXTT14=
PLAYORDER=
